<?xml version="1.0" standalone="no"?>
<!DOCTYPE svg PUBLIC "-//W3C//DTD SVG 20010904//EN"
 "http://www.w3.org/TR/2001/REC-SVG-20010904/DTD/svg10.dtd">
<svg version="1.0" xmlns="http://www.w3.org/2000/svg"
 width="448.000000pt" height="110.000000pt" viewBox="0 0 448.000000 110.000000"
 preserveAspectRatio="xMidYMid meet">

<g transform="translate(0.000000,110.000000) scale(0.100000,-0.100000)"
fill="#000000" stroke="none">
<path d="M0 550 l0 -550 2240 0 2240 0 0 550 0 550 -2240 0 -2240 0 0 -550z
m2580 319 c69 -6 150 -17 180 -24 30 -8 84 -17 120 -21 36 -4 78 -13 95 -22
22 -11 89 -17 275 -23 306 -10 365 -16 386 -40 21 -23 10 -57 -22 -65 -14 -4
-46 -3 -72 1 -26 3 -155 10 -287 15 -177 5 -252 12 -286 24 -25 8 -79 20 -120
26 -41 6 -87 14 -104 19 -59 17 -310 34 -332 22 -15 -7 -126 -9 -374 -5 -347
6 -356 6 -434 -16 -95 -27 -338 -39 -402 -20 -23 7 -192 15 -413 21 -206 5
-385 12 -397 14 -31 7 -40 43 -15 67 19 20 27 20 403 9 213 -5 401 -15 422
-21 64 -19 298 -8 397 19 83 23 92 23 432 17 218 -3 349 -2 353 4 8 13 42 13
195 -1z m-1524 -508 c46 -14 177 -30 332 -41 86 -6 158 -17 183 -27 45 -17
125 -17 1244 7 l420 9 22 -25 c14 -15 33 -24 51 -24 38 0 66 -31 58 -63 -3
-14 -12 -27 -19 -30 -20 -7 -150 8 -154 19 -10 29 -25 30 -393 23 -1244 -24
-1183 -24 -1240 -5 -31 10 -126 23 -229 31 -97 8 -214 22 -261 31 -69 13 -125
15 -295 11 -116 -3 -227 -11 -249 -17 -48 -14 -83 -6 -91 21 -14 44 20 59 185
83 55 8 409 5 436 -3z"/>
</g>
</svg>
